<svg width="100" height="25" viewBox="0 0 100 25" fill="none" xmlns="http://www.w3.org/2000/svg">
    <path fill-rule="evenodd" clip-rule="evenodd" d="M31.418 19.7744L32.6341 16.914C33.9658 17.9062 35.7031 18.4316 37.4401 18.4316C38.7141 18.4316 39.5248 17.9354 39.5248 17.1765C39.4958 15.0749 31.8524 16.7095 31.7944 11.4259C31.7655 8.74056 34.1395 6.66797 37.4982 6.66797C39.4958 6.66797 41.4935 7.16441 42.9121 8.3029L41.7757 11.2245C40.4704 10.3799 38.8587 9.79136 37.3243 9.79136C36.2819 9.79136 35.5871 10.2874 35.5871 10.9297C35.6162 13.0023 43.3176 11.8638 43.4045 16.914C43.4045 19.6579 41.0881 21.5841 37.7875 21.5841C35.3558 21.5841 33.1263 21.0007 31.418 19.7744" fill="#0A0B09"/>
    <path fill-rule="evenodd" clip-rule="evenodd" d="M79.8471 15.878C79.2405 16.9579 78.0913 17.687 76.7721 17.687C74.8214 17.687 73.2402 16.0929 73.2402 14.1262C73.2402 12.1593 74.8214 10.5648 76.7721 10.5648C78.0913 10.5648 79.2405 11.2939 79.8471 12.374L83.228 10.4855C81.9619 8.20793 79.5461 6.66797 76.7721 6.66797C72.6869 6.66797 69.375 10.0069 69.375 14.1262C69.375 18.2451 72.6869 21.5842 76.7721 21.5842C79.5461 21.5842 81.9619 20.0439 83.228 17.7664L79.8471 15.878" fill="#0A0B09"/>
    <mask id="mask0_821_12884" style="mask-type:alpha" maskUnits="userSpaceOnUse" x="45" y="0" width="55" height="22">
        <path fill-rule="evenodd" clip-rule="evenodd" d="M45.5977 0.460938H99.9992V21.2935H45.5977V0.460938Z" fill="white"/>
    </mask>
    <g mask="url(#mask0_821_12884)">
        <path fill-rule="evenodd" clip-rule="evenodd" d="M45.5977 21.2935H49.8249V0.460938H45.5977V21.2935Z" fill="#0A0B09"/>
        <path fill-rule="evenodd" clip-rule="evenodd" d="M85.3594 0.460938V21.2935H89.5866V15.0519L94.5956 21.2935H99.9985L93.6285 13.8789L99.535 6.96027H94.3639L89.5866 12.712V0.460938H85.3594" fill="#0A0B09"/>
    </g>
    <path fill-rule="evenodd" clip-rule="evenodd" d="M62.8476 6.95978V8.65288C62.1529 7.48512 60.4446 6.66797 58.6497 6.66797C54.9436 6.66797 52.0195 9.96648 52.0195 14.1113C52.0195 18.2566 54.9436 21.5842 58.6497 21.5842C60.4446 21.5842 62.1529 20.7668 62.8476 19.5991V21.2922H67.0747V6.95978H62.8476ZM62.8484 15.9063C62.2402 16.9281 60.9665 17.6867 59.5479 17.6867C57.597 17.6867 56.0156 16.0925 56.0156 14.1259C56.0156 12.159 57.597 10.5645 59.5479 10.5645C60.9665 10.5645 62.2402 11.3527 62.8484 12.4034V15.9063Z" fill="#0A0B09"/>
    <path fill-rule="evenodd" clip-rule="evenodd" d="M9.09361 0C7.72374 0 6.61328 1.11959 6.61328 2.50074C6.61328 3.88189 7.72374 5.00148 9.09361 5.00148H11.5739V2.50074C11.5739 1.11959 10.4635 0 9.09361 0" fill="#44BEDF"/>
    <path fill-rule="evenodd" clip-rule="evenodd" d="M9.09455 6.66797H2.48033C1.11045 6.66797 0 7.78756 0 9.16871C0 10.5499 1.11045 11.6695 2.48033 11.6695H9.09455C10.4644 11.6695 11.5749 10.5499 11.5749 9.16871C11.5749 7.78756 10.4644 6.66797 9.09455 6.66797" fill="#44BEDF"/>
    <path fill-rule="evenodd" clip-rule="evenodd" d="M24.8044 9.16871C24.8044 7.78756 23.694 6.66797 22.3241 6.66797C20.9542 6.66797 19.8438 7.78756 19.8438 9.16871V11.6695H22.3241C23.694 11.6695 24.8044 10.5499 24.8044 9.16871" fill="#2BAC76"/>
    <mask id="mask1_821_12884" style="mask-type:alpha" maskUnits="userSpaceOnUse" x="13" y="0" width="6" height="25">
        <path fill-rule="evenodd" clip-rule="evenodd" d="M13.2266 0H18.1872V25H13.2266V0Z" fill="white"/>
    </mask>
    <g mask="url(#mask1_821_12884)">
        <path fill-rule="evenodd" clip-rule="evenodd" d="M18.1872 9.16938V2.50074C18.1872 1.11959 17.0768 0 15.7069 0C14.337 0 13.2266 1.11959 13.2266 2.50074V9.16938C13.2266 10.5505 14.337 11.6701 15.7069 11.6701C17.0768 11.6701 18.1872 10.5505 18.1872 9.16938" fill="#2BAC76"/>
        <path fill-rule="evenodd" clip-rule="evenodd" d="M15.7069 25.0073C17.0768 25.0073 18.1872 23.8878 18.1872 22.5066C18.1872 21.1255 17.0768 20.0059 15.7069 20.0059H13.2266V22.5066C13.2266 23.8878 14.337 25.0073 15.7069 25.0073" fill="#E2AC37"/>
    </g>
    <path fill-rule="evenodd" clip-rule="evenodd" d="M15.7069 18.3374H22.3211C23.691 18.3374 24.8014 17.2178 24.8014 15.8367C24.8014 14.4555 23.691 13.3359 22.3211 13.3359H15.7069C14.337 13.3359 13.2266 14.4555 13.2266 15.8367C13.2266 17.2178 14.337 18.3374 15.7069 18.3374" fill="#E2AC37"/>
    <mask id="mask2_821_12884" style="mask-type:alpha" maskUnits="userSpaceOnUse" x="0" y="13" width="12" height="12">
        <path fill-rule="evenodd" clip-rule="evenodd" d="M0 13.3359H11.5749V24.9987H0V13.3359Z" fill="white"/>
    </mask>
    <g mask="url(#mask2_821_12884)">
        <path fill-rule="evenodd" clip-rule="evenodd" d="M0 15.8367C0 17.2178 1.11045 18.3374 2.48033 18.3374C3.85021 18.3374 4.96066 17.2178 4.96066 15.8367V13.3359H2.48033C1.11045 13.3359 0 14.4555 0 15.8367" fill="#CD2553"/>
        <path fill-rule="evenodd" clip-rule="evenodd" d="M6.61328 15.8367V22.5053C6.61328 23.8865 7.72374 25.0061 9.09361 25.0061C10.4635 25.0061 11.5739 23.8865 11.5739 22.5053V15.8367C11.5739 14.4554 10.4635 13.3359 9.09361 13.3359C7.72374 13.3359 6.61328 14.4555 6.61328 15.8367" fill="#CD2553"/>
    </g>
</svg>
